<svg width="120" height="120" viewBox="0 0 120 120" fill="none" xmlns="http://www.w3.org/2000/svg">
  <rect width="120" height="120" rx="8" fill="#764ABC"/>
  <path d="M37.5 73.2C42.8 78.7 49.6 82.8 58 84.5M37.5 73.2C34.5 69.9 32.5 66.2 31.7 62.6M37.5 73.2C35.8 76.7 35.5 80 37.2 82C40 85.3 47.4 84.9 56.4 81.4M31.7 62.6C30.6 57.4 31.9 52.6 36 49.9M31.7 62.6C27.8 64.4 25.1 66.8 24.4 69.4C23.3 73.5 27 77.8 33.8 81.3M36 49.9C41.1 46.5 48.8 45.5 57.2 47.2M36 49.9C35.1 46.2 35.5 43.1 37.4 41.3C40.1 38.7 45.9 39 53.2 41.8M57.2 47.2C65.6 48.9 73.3 53 78.8 58.2M57.2 47.2C58.6 44 60.7 41.4 63.2 40C66.9 37.8 71.8 38.8 77 42.2M78.8 58.2C83.3 62.5 86.5 67.6 87.8 72.5M78.8 58.2C82.8 58.3 86 59.3 88.1 61.4C91.2 64.5 91.4 70.4 88.9 77M87.8 72.5C89.6 79.1 89 84.9 85.4 88.5M87.8 72.5C90.7 74.6 92.4 77.1 92.4 79.6C92.4 83.4 88.6 86.7 82.6 88.8M85.4 88.5C80.8 93.1 72.6 94.3 63.7 92.3M85.4 88.5C84.5 92.3 82.8 95.1 80.2 96.5C76.6 98.6 71.8 97.9 66.4 94.8" stroke="#F4F4F4" stroke-width="5.5" stroke-linecap="round" stroke-linejoin="round"/>
  <circle cx="31" cy="62" r="7.5" fill="#F4F4F4"/>
  <circle cx="57.5" cy="47" r="7.5" fill="#F4F4F4"/>
  <circle cx="88" cy="77" r="7.5" fill="#F4F4F4"/>
</svg>
